<svg xmlns="http://www.w3.org/2000/svg" width="140" height="230" viewBox="0 0 140 230"><defs><radialGradient id="fill" cx="50%" cy="10%" r="98%"><stop offset="0" stop-color="#1d648d" stop-opacity=".82"/><stop offset=".28" stop-color="#0a3c61" stop-opacity=".97"/><stop offset=".75" stop-color="#05263f"/><stop offset="1" stop-color="#031827"/></radialGradient><linearGradient id="shine" x1="0" y1="0" x2="1" y2="1"><stop offset="0" stop-color="#fff" stop-opacity=".24"/><stop offset=".16" stop-color="#fff" stop-opacity=".07"/><stop offset=".38" stop-color="#fff" stop-opacity="0"/></linearGradient><pattern id="dots" width="9" height="9" patternUnits="userSpaceOnUse"><circle cx="1.4" cy="1.4" r=".68" fill="#52c6ff" fill-opacity=".34"/></pattern><filter id="glow" x="-30%" y="-30%" width="160%" height="160%"><feGaussianBlur stdDeviation="3.2" result="b"/><feMerge><feMergeNode in="b"/><feMergeNode in="SourceGraphic"/></feMerge></filter></defs><path d="M94 8 C62 2 38 18 22 47 C5 78 3 152 22 183 C38 212 62 228 94 222 C116 218 130 203 132 182 C134 160 126 139 122 121 C119 107 124 86 132 62 C138 42 133 20 94 8 Z" fill="url(#fill)" stroke="#4fd7ff" stroke-width="2" filter="url(#glow)"/><path d="M94 8 C62 2 38 18 22 47 C5 78 3 152 22 183 C38 212 62 228 94 222 C116 218 130 203 132 182 C134 160 126 139 122 121 C119 107 124 86 132 62 C138 42 133 20 94 8 Z" fill="url(#dots)" opacity=".9"/><path d="M94 8 C62 2 38 18 22 47 C5 78 3 152 22 183 C38 212 62 228 94 222 C116 218 130 203 132 182 C134 160 126 139 122 121 C119 107 124 86 132 62 C138 42 133 20 94 8 Z" fill="url(#shine)" opacity=".62"/></svg>